<svg xmlns="http://www.w3.org/2000/svg" xmlns:xlink="http://www.w3.org/1999/xlink" viewBox="0,0,256,256" width="50px" height="50px" fill-rule="nonzero"><g fill="#0ffb07" fill-rule="nonzero" stroke="none" stroke-width="1" stroke-linecap="butt" stroke-linejoin="miter" stroke-miterlimit="10" stroke-dasharray="" stroke-dashoffset="0" font-family="none" font-weight="none" font-size="none" text-anchor="none" style="mix-blend-mode: normal"><g transform="scale(5.12,5.12)"><path d="M25,2c-10.60547,0 -19.55469,7.21875 -22.20312,17h2.08594c0.75,-2.50391 1.96484,-4.80078 3.52344,-6.81641c1.70703,0.96094 3.68359,1.76563 5.87109,2.38281c-0.36719,1.40234 -0.66797,2.87891 -0.87891,4.43359h2.03906c0.20313,-1.375 0.48047,-2.6875 0.80859,-3.9375c2.41016,0.53125 5.01563,0.84766 7.75391,0.90625v3.03125h2v-3.03125c2.73828,-0.05859 5.34375,-0.37109 7.75391,-0.90625c0.32813,1.25 0.60547,2.5625 0.80859,3.9375h2.03906c-0.21094,-1.55469 -0.51172,-3.03125 -0.87891,-4.43359c2.1875,-0.61719 4.16406,-1.42187 5.87109,-2.38281c1.55859,2.01563 2.77344,4.3125 3.51953,6.81641h2.08984c-2.64844,-9.78125 -11.59766,-17 -22.20312,-17zM24,4.12109v9.84766c-2.54297,-0.05859 -4.96094,-0.35156 -7.1875,-0.83594c1.64453,-4.91797 4.25,-8.36328 7.1875,-9.01172zM26,4.12109c2.9375,0.64844 5.54297,4.09375 7.1875,9.01172c-2.22656,0.48438 -4.64453,0.77734 -7.1875,0.83594zM19.13281,4.85156c-1.76172,1.85938 -3.23437,4.53906 -4.29687,7.78906c-1.91016,-0.53906 -3.63672,-1.22266 -5.11328,-2.01562c2.53125,-2.69141 5.76953,-4.70703 9.41016,-5.77344zM30.86719,4.85156c3.64063,1.06641 6.87891,3.08203 9.41016,5.77344c-1.47656,0.79297 -3.20312,1.47656 -5.11328,2.01563c-1.0625,-3.25 -2.53516,-5.92969 -4.29687,-7.78906zM3,21l2.53906,8h2.32813l2.11719,-5.98047l2.11719,5.98047h2.27734l2.58594,-8h-2.16406l-1.63281,5.58984l-1.86719,-5.58984h-2.55078l-1.94531,5.49609l-1.60547,-5.49609zM18.01563,21l2.54297,8h2.33203l2.10938,-5.98047l2.12109,5.98047h2.27734l2.58594,-8h-2.16797l-1.62891,5.58984l-1.86719,-5.58984h-2.55469l-1.94531,5.49609l-1.60156,-5.49609zM32.98438,21l2.54688,8h2.33984l2.12109,-5.98047l2.12891,5.98047h2.28516l2.59375,-8h-2.17187l-1.64062,5.58984l-1.87109,-5.58984h-2.5625l-1.95312,5.49609l-1.61328,-5.49609zM2.79688,31c2.64844,9.78125 11.59766,17 22.20313,17c10.60547,0 19.55469,-7.21875 22.20313,-17h-2.08984c-0.74609,2.50391 -1.96094,4.80078 -3.51953,6.81641c-1.70703,-0.96094 -3.68359,-1.76562 -5.87109,-2.38281c0.36719,-1.40234 0.66797,-2.87891 0.87891,-4.43359h-2.03906c-0.20312,1.375 -0.48047,2.6875 -0.80859,3.9375c-2.41016,-0.53125 -5.01562,-0.84766 -7.75391,-0.90625v-3.03125h-2v3.03125c-2.73828,0.05859 -5.34375,0.37109 -7.75391,0.90625c-0.32812,-1.25 -0.60547,-2.5625 -0.80859,-3.9375h-2.03906c0.21094,1.55469 0.51172,3.03125 0.87891,4.43359c-2.1875,0.61719 -4.16406,1.42188 -5.87109,2.38281c-1.55859,-2.01562 -2.77344,-4.3125 -3.52344,-6.81641zM24,36.03125v9.84766c-2.9375,-0.64844 -5.54297,-4.09375 -7.1875,-9.01172c2.22656,-0.48437 4.64453,-0.77734 7.1875,-0.83594zM26,36.03125c2.54297,0.05859 4.96094,0.35156 7.1875,0.83594c-1.64453,4.91797 -4.25,8.36328 -7.1875,9.01172zM14.83984,37.35938c1.0625,3.25 2.53125,5.92969 4.29297,7.78516c-3.64062,-1.0625 -6.87891,-3.07812 -9.41016,-5.76953c1.47656,-0.79687 3.20313,-1.47656 5.11719,-2.01562zM35.16406,37.35938c1.91016,0.53906 3.63672,1.22266 5.11328,2.01563c-2.53125,2.69141 -5.76953,4.70703 -9.41016,5.76953c1.76172,-1.85547 3.23438,-4.53516 4.29688,-7.78516z"></path></g></g></svg>